<svg xmlns="http://www.w3.org/2000/svg" xmlns:xlink="http://www.w3.org/1999/xlink" version="1.1" width="256" height="256" viewBox="0 0 256 256" xml:space="preserve">

<defs>
</defs>
<g style="stroke: none; stroke-width: 0; stroke-dasharray: none; stroke-linecap: butt; stroke-linejoin: miter; stroke-miterlimit: 10; fill: none; fill-rule: nonzero; opacity: 1;" transform="translate(1.4065934065934016 1.4065934065934016) scale(2.81 2.81)" >
	<path d="M 85.126 62.927 c -2.313 -3.841 -5.831 -6.134 -9.411 -6.134 h 0 c -1.206 0 -2.386 0.256 -3.507 0.76 L 58.56 63.897 l -0.741 0.345 l 0.407 0.709 l 0.877 1.529 c 0.208 0.362 0.082 0.826 -0.279 1.034 c -7.32 4.215 -13.599 6.807 -19.194 7.926 c -0.049 0.01 -0.099 0.015 -0.15 0.015 c -0.359 0 -0.671 -0.256 -0.742 -0.61 c -0.04 -0.199 0 -0.401 0.112 -0.569 c 0.112 -0.168 0.283 -0.283 0.482 -0.323 c 5.105 -1.021 10.802 -3.312 17.416 -7.006 l 0.662 -0.37 l -0.377 -0.658 l -0.251 -0.438 l -0.689 -1.201 c -1.765 -3.075 -3.67 -4.446 -6.176 -4.446 c -0.426 0 -0.881 0.041 -1.352 0.122 l -13.335 2.408 c -0.212 0.016 -0.42 0.024 -0.627 0.024 c -2.228 0 -4.195 -0.917 -5.93 -1.727 c -1.717 -0.799 -3.333 -1.551 -5.14 -1.551 c -0.182 0 -0.364 0.008 -0.548 0.024 l -1.72 0.153 l -0.683 0.061 v 0.686 V 83.48 v 0.82 l 0.816 -0.073 l 4.621 -0.41 c 0.35 -0.031 0.712 -0.047 1.077 -0.047 c 2.964 0 5.807 1.056 8.556 2.077 c 2.616 0.972 5.076 1.886 7.502 1.886 c 0.272 0 0.543 -0.012 0.804 -0.035 c 5.502 -0.48 19.825 -9.454 34.988 -18.956 c 1.849 -1.159 3.703 -2.321 5.565 -3.482 C 85.321 64.754 85.597 63.707 85.126 62.927 z M 83.698 62.148 c -0.068 -0.092 -0.136 -0.183 -0.205 -0.273 C 83.562 61.965 83.631 62.056 83.698 62.148 z M 82.635 60.854 c -0.004 -0.005 -0.009 -0.008 -0.013 -0.013 C 82.626 60.846 82.631 60.849 82.635 60.854 z M 81.709 59.974 c -0.08 -0.069 -0.159 -0.137 -0.24 -0.203 C 81.55 59.837 81.629 59.904 81.709 59.974 z M 80.494 59.044 c -0.009 -0.006 -0.019 -0.011 -0.029 -0.017 C 80.475 59.033 80.485 59.038 80.494 59.044 z M 79.469 58.467 c -0.087 -0.043 -0.174 -0.085 -0.261 -0.125 C 79.296 58.382 79.382 58.424 79.469 58.467 z M 78.157 57.927 c -0.013 -0.004 -0.027 -0.007 -0.041 -0.011 C 78.13 57.92 78.144 57.923 78.157 57.927 z M 77.078 57.672 c -0.09 -0.016 -0.181 -0.031 -0.271 -0.043 C 76.898 57.641 76.988 57.656 77.078 57.672 z M 75.723 57.543 c -0.148 0 -0.296 0.014 -0.444 0.022 c 0.145 -0.008 0.29 -0.023 0.435 -0.023 C 75.717 57.542 75.72 57.543 75.723 57.543 z M 73.305 57.93 c -0.265 0.087 -0.529 0.189 -0.79 0.307 C 72.776 58.119 73.04 58.017 73.305 57.93 z M 74.913 57.585 c -0.159 0.017 -0.317 0.049 -0.475 0.075 C 74.596 57.633 74.755 57.601 74.913 57.585 z M 74.106 57.713 c -0.182 0.039 -0.362 0.094 -0.542 0.147 C 73.744 57.807 73.924 57.752 74.106 57.713 z M 38.859 86.184 c -0.2 -0.063 -0.401 -0.13 -0.603 -0.198 C 38.458 86.054 38.659 86.121 38.859 86.184 z M 39.822 86.468 c -0.188 -0.051 -0.376 -0.106 -0.565 -0.163 C 39.446 86.362 39.634 86.417 39.822 86.468 z M 55.442 64.652 c -0.221 -0.386 -0.444 -0.736 -0.668 -1.063 C 54.998 63.916 55.22 64.267 55.442 64.652 z M 54.556 63.293 c -0.154 -0.212 -0.31 -0.417 -0.467 -0.602 C 54.246 62.877 54.401 63.082 54.556 63.293 z M 53.827 62.403 c -0.148 -0.159 -0.298 -0.31 -0.45 -0.447 C 53.529 62.093 53.679 62.243 53.827 62.403 z M 50.576 60.631 c -0.242 -0.029 -0.49 -0.044 -0.746 -0.04 c 0.028 0 0.059 -0.008 0.086 -0.008 C 50.143 60.583 50.36 60.605 50.576 60.631 z M 53.097 61.716 c -0.156 -0.125 -0.314 -0.236 -0.475 -0.34 C 52.783 61.48 52.942 61.591 53.097 61.716 z M 52.344 61.201 c -0.181 -0.101 -0.368 -0.183 -0.557 -0.259 C 51.975 61.018 52.162 61.1 52.344 61.201 z M 51.553 60.844 c -0.271 -0.092 -0.549 -0.161 -0.838 -0.203 C 51.004 60.683 51.282 60.753 51.553 60.844 z M 34.455 63.13 c -0.133 -0.002 -0.262 -0.011 -0.393 -0.019 C 34.193 63.118 34.323 63.127 34.455 63.13 z M 33.532 63.067 c -0.13 -0.015 -0.258 -0.034 -0.386 -0.054 C 33.274 63.033 33.402 63.052 33.532 63.067 z M 32.642 62.923 c -0.126 -0.026 -0.251 -0.054 -0.375 -0.084 C 32.391 62.869 32.516 62.897 32.642 62.923 z M 31.781 62.709 c -0.12 -0.034 -0.239 -0.069 -0.356 -0.106 C 31.542 62.641 31.661 62.675 31.781 62.709 z M 30.944 62.44 c -0.111 -0.04 -0.222 -0.078 -0.332 -0.12 C 30.722 62.362 30.833 62.401 30.944 62.44 z M 30.121 62.125 c -0.097 -0.04 -0.194 -0.078 -0.29 -0.119 C 29.927 62.047 30.025 62.085 30.121 62.125 z M 29.285 61.766 c -0.069 -0.031 -0.139 -0.061 -0.208 -0.092 C 29.146 61.705 29.217 61.735 29.285 61.766 z M 28.215 61.275 c -0.161 -0.075 -0.322 -0.15 -0.482 -0.223 C 27.893 61.125 28.054 61.2 28.215 61.275 z M 27.518 60.956 c -0.142 -0.064 -0.285 -0.128 -0.426 -0.189 C 27.233 60.828 27.376 60.891 27.518 60.956 z M 26.854 60.667 c -0.131 -0.055 -0.261 -0.109 -0.392 -0.16 C 26.592 60.558 26.723 60.612 26.854 60.667 z M 26.202 60.41 c -0.124 -0.046 -0.247 -0.09 -0.371 -0.131 C 25.955 60.32 26.079 60.364 26.202 60.41 z M 25.562 60.194 c -0.121 -0.037 -0.242 -0.071 -0.363 -0.102 C 25.32 60.123 25.441 60.157 25.562 60.194 z M 24.925 60.026 c -0.121 -0.027 -0.243 -0.05 -0.365 -0.071 C 24.683 59.976 24.804 59.999 24.925 60.026 z M 24.286 59.913 c -0.123 -0.016 -0.247 -0.025 -0.371 -0.034 C 24.039 59.888 24.163 59.898 24.286 59.913 z M 23.533 59.859 c 0.036 0 0.072 0.005 0.108 0.006 c -0.195 -0.004 -0.392 -0.002 -0.59 0.015 C 23.212 59.866 23.373 59.859 23.533 59.859 z M 32.705 84.013 c 0.724 0.229 1.441 0.481 2.151 0.741 C 34.146 84.495 33.43 84.242 32.705 84.013 z M 36.896 85.508 c -0.324 -0.119 -0.65 -0.24 -0.979 -0.362 C 36.246 85.268 36.572 85.389 36.896 85.508 z M 37.884 85.86 c -0.226 -0.078 -0.453 -0.16 -0.681 -0.242 C 37.431 85.7 37.658 85.782 37.884 85.86 z M 40.227 86.573 c 0.184 0.046 0.367 0.088 0.549 0.128 C 40.594 86.662 40.411 86.619 40.227 86.573 z M 41.179 86.782 c 0.182 0.034 0.363 0.062 0.544 0.087 C 41.542 86.843 41.361 86.816 41.179 86.782 z M 42.114 86.92 c 0.184 0.02 0.367 0.03 0.549 0.04 C 42.481 86.951 42.298 86.94 42.114 86.92 z M 43.153 86.983 c -0.039 0 -0.078 -0.005 -0.117 -0.005 c 0.286 0.004 0.572 -0.002 0.855 -0.027 C 43.646 86.973 43.4 86.983 43.153 86.983 z M 62.363 78.096 c 1.666 -0.993 3.392 -2.041 5.163 -3.128 C 65.755 76.055 64.029 77.103 62.363 78.096 z M 78.56 68.098 c -1.886 1.182 -3.76 2.356 -5.604 3.506 C 74.801 70.454 76.674 69.28 78.56 68.098 c 1.835 -1.151 3.69 -2.313 5.552 -3.474 C 82.251 65.785 80.396 66.947 78.56 68.098 z" style="stroke: none; stroke-width: 1; stroke-dasharray: none; stroke-linecap: butt; stroke-linejoin: miter; stroke-miterlimit: 10; fill: rgb(0,255,0); fill-rule: nonzero; opacity: 1;" transform=" matrix(1 0 0 1 0 0) " stroke-linecap="round" />
	<path d="M 51.478 2.069 c 11.855 0 21.5 9.645 21.5 21.5 s -9.645 21.5 -21.5 21.5 s -21.5 -9.645 -21.5 -21.5 S 39.623 2.069 51.478 2.069" style="stroke: none; stroke-width: 1; stroke-dasharray: none; stroke-linecap: butt; stroke-linejoin: miter; stroke-miterlimit: 10; fill: rgb(255,215,0); fill-rule: nonzero; opacity: 1;" transform=" matrix(1 0 0 1 0 0) " stroke-linecap="round" />
	<path d="M 87.069 61.757 c -3.791 -6.294 -10.139 -8.813 -15.808 -6.264 l -13.927 6.473 c -1.362 -2.039 -4.155 -5.104 -9.167 -4.243 l -13.156 2.382 c -1.88 0.132 -3.582 -0.661 -5.382 -1.5 c -2.072 -0.966 -4.219 -1.967 -6.845 -1.73 l -1.452 0.129 v -1.043 c 0 -2.13 -1.733 -3.863 -3.863 -3.863 H 6.243 c -2.13 0 -3.863 1.733 -3.863 3.863 v 30.175 C 2.38 88.267 4.113 90 6.243 90 h 11.226 c 2.002 0 3.633 -1.536 3.825 -3.488 l 4.926 -0.437 c 2.854 -0.255 5.669 0.792 8.647 1.899 c 2.685 0.998 5.451 2.025 8.293 2.025 c 0.331 0 0.663 -0.014 0.996 -0.043 c 6.047 -0.527 19.931 -9.228 36.007 -19.302 c 1.833 -1.149 3.687 -2.311 5.547 -3.471 C 87.565 66.027 88.174 63.593 87.069 61.757 z M 84.113 64.624 c -1.862 1.162 -3.717 2.323 -5.552 3.474 C 63.47 77.554 49.216 86.486 43.89 86.951 c -2.513 0.225 -5.166 -0.762 -7.973 -1.805 c -2.818 -1.047 -5.721 -2.126 -8.822 -2.126 c -0.378 0 -0.759 0.016 -1.143 0.05 l -4.621 0.41 V 60.034 l 1.719 -0.153 c 1.825 -0.161 3.515 0.627 5.305 1.459 c 2 0.933 4.27 1.987 6.97 1.768 l 13.366 -2.414 c 2.897 -0.497 4.851 0.65 6.75 3.959 l 0.688 1.201 l 0 0 l 0.251 0.438 c -6.54 3.652 -12.178 5.922 -17.198 6.925 c -0.817 0.163 -1.346 0.957 -1.183 1.775 c 0.143 0.717 0.773 1.213 1.477 1.213 c 0.098 0 0.197 -0.009 0.298 -0.029 c 5.678 -1.135 12.03 -3.756 19.421 -8.011 c 0.722 -0.415 0.97 -1.336 0.556 -2.057 l -0.877 -1.529 l 13.639 -6.34 c 4.191 -1.885 9.004 0.155 11.969 5.078 C 84.74 63.739 84.57 64.338 84.113 64.624 z" style="stroke: none; stroke-width: 1; stroke-dasharray: none; stroke-linecap: butt; stroke-linejoin: miter; stroke-miterlimit: 10; fill: rgb(0,100,0); fill-rule: nonzero; opacity: 1;" transform=" matrix(1 0 0 1 0 0) " stroke-linecap="round" />
	<path d="M 51.478 3.017 c 11.332 0 20.552 9.22 20.552 20.552 s -9.22 20.552 -20.552 20.552 s -20.552 -9.22 -20.552 -20.552 S 40.146 3.017 51.478 3.017 M 51.478 0 C 38.461 0 27.909 10.552 27.909 23.569 s 10.552 23.569 23.569 23.569 s 23.569 -10.552 23.569 -23.569 S 64.495 0 51.478 0 L 51.478 0 z" style="stroke: none; stroke-width: 1; stroke-dasharray: none; stroke-linecap: butt; stroke-linejoin: miter; stroke-miterlimit: 10; fill: rgb(0,100,0); fill-rule: nonzero; opacity: 1;" transform=" matrix(1 0 0 1 0 0) " stroke-linecap="round" />
	<path d="M 59.419 27.577 c -0.833 0 -1.508 0.675 -1.508 1.508 c 0 1.222 -0.784 2.253 -1.711 2.253 h -9.443 c -0.928 0 -1.711 -1.032 -1.711 -2.253 V 18.052 c 0 -1.222 0.784 -2.253 1.711 -2.253 H 56.2 c 0.927 0 1.711 1.032 1.711 2.253 c 0 0.833 0.676 1.508 1.508 1.508 s 1.508 -0.675 1.508 -1.508 c 0 -2.906 -2.121 -5.27 -4.727 -5.27 h -3.213 v -2.307 c 0 -0.833 -0.676 -1.508 -1.508 -1.508 c -0.833 0 -1.508 0.675 -1.508 1.508 v 2.307 h -3.213 c -2.607 0 -4.728 2.364 -4.728 5.27 v 11.033 c 0 2.906 2.121 5.27 4.728 5.27 h 3.213 v 2.307 c 0 0.833 0.676 1.508 1.508 1.508 c 0.833 0 1.508 -0.675 1.508 -1.508 v -2.307 H 56.2 c 2.606 0 4.727 -2.364 4.727 -5.27 C 60.927 28.252 60.252 27.577 59.419 27.577 z" style="stroke: none; stroke-width: 1; stroke-dasharray: none; stroke-linecap: butt; stroke-linejoin: miter; stroke-miterlimit: 10; fill: rgb(0,100,0); fill-rule: nonzero; opacity: 1;" transform=" matrix(1 0 0 1 0 0) " stroke-linecap="round" />
</g>
</svg>